<?xml version="1.0" encoding="UTF-8" standalone="no"?>
<svg
   xmlns:dc="http://purl.org/dc/elements/1.1/"
   xmlns:cc="http://creativecommons.org/ns#"
   xmlns:rdf="http://www.w3.org/1999/02/22-rdf-syntax-ns#"
   xmlns:svg="http://www.w3.org/2000/svg"
   xmlns="http://www.w3.org/2000/svg"
   xmlns:sodipodi="http://sodipodi.sourceforge.net/DTD/sodipodi-0.dtd"
   xmlns:inkscape="http://www.inkscape.org/namespaces/inkscape"
   viewBox="0 0 21.155001 17.6"
   width="21.155001"
   height="17.6"
   version="1.1"
   id="svg4"
   sodipodi:docname="Vivaldi-GX-Stretched.svg"
   inkscape:version="1.0.1 (3bc2e813f5, 2020-09-07)">
  <metadata
     id="metadata10">
    <rdf:RDF>
      <cc:Work
         rdf:about="">
        <dc:format>image/svg+xml</dc:format>
        <dc:type
           rdf:resource="http://purl.org/dc/dcmitype/StillImage" />
        <dc:title></dc:title>
      </cc:Work>
    </rdf:RDF>
  </metadata>
  <defs
     id="defs8" />
  <sodipodi:namedview
     pagecolor="#ffffff"
     bordercolor="#666666"
     borderopacity="1"
     objecttolerance="10"
     gridtolerance="10"
     guidetolerance="10"
     inkscape:pageopacity="0"
     inkscape:pageshadow="2"
     inkscape:window-width="1920"
     inkscape:window-height="1013"
     id="namedview6"
     showgrid="false"
     inkscape:zoom="16"
     inkscape:cx="3.7124747"
     inkscape:cy="8.1933452"
     inkscape:window-x="-9"
     inkscape:window-y="-9"
     inkscape:window-maximized="1"
     inkscape:current-layer="svg4"
     inkscape:document-rotation="0" />
  <path
     id="path879"
     style="color:#000000;fill:#ff0000;stroke-width:1.01976"
     d="M 3.8865219,2.303968e-4 C 3.5915726,8.575968e-4 3.2948241,0.0031804 3.0544906,0.0063204 c -0.2321768,0.00304 -0.3825525,0.00498 -0.5,0.014217 -2.00038916,0.09773 -3.20321321,2.4192164 -2.18554686,4.2124612 L 2.8650375,8.729807 c 1.3578166,2.499339 2.7147866,4.91599 4.0859375,7.362661 0.4870667,0.957052 1.4791239,1.615507 2.5585935,1.492843 l -0.03906,0.0041 c 0,0 0.51986,-0.01633 1.0585935,-0.03453 0.269369,-0.0091 0.54458,-0.02026 0.761719,-0.02843 0.178356,-0.0067 0.268107,-0.01011 0.359375,-0.01625 0.907608,0.06939 1.853027,-0.304615 2.404297,-1.135373 l 0.0098,-0.01625 0.0098,-0.01625 c 2.258255,-4.016957 4.473398,-8.05853 6.712891,-12.0808573 l 0.002,-0.00406 0.002,-0.00406 C 20.93293,3.9885848 21.033227,3.7017636 21.089647,3.4043185 21.502611,1.5771802 19.899138,-0.2113824 18.116991,0.0835047 16.339411,0.2655708 15.215272,2.3774832 16.025194,4.0380151 l 0.0039,0.010155 0.0059,0.00812 c 0.640412,1.1915282 0.422288,2.8495356 -0.560547,3.7534339 l -0.0098,0.0081 -0.0098,0.01016 C 14.223897,9.088835 11.848974,8.839682 10.921679,7.3141456 9.8496195,5.4543045 8.8285144,3.5495612 7.7517563,1.6677461 l 0.029297,0.060932 C 7.3462206,0.6732979 6.3128824,-0.0380992 5.2029281,0.0164791 v -0.00203 C 5.0755378,0.0027707 4.9429292,0.0042756 4.7087875,0.0022615 4.4746458,2.474968e-4 4.1814711,-3.967032e-4 3.8865219,2.303968e-4 Z M 15.562304,0.0835044 c -0.492403,0.030887 -0.883147,0.2119954 -1.22461,0.4569927 -0.34556,0.2479365 -0.621785,0.5848407 -0.822265,0.9607003 -0.200477,0.3758565 -0.32357,0.7969915 -0.347657,1.2328647 -0.02409,0.4358662 0.05442,0.8869562 0.257813,1.3039527 5.16e-4,9.726e-4 0.004,0.010288 0.0039,0.010155 -2.82e-4,-5.256e-4 0.01577,0.031068 0.02344,0.046715 0.149287,0.2877322 0.253186,0.6000793 0.30664,0.9241409 0.05578,0.3381604 0.126318,0.801892 0.08008,1.1414662 -0.109879,0.8069566 -0.337813,1.3550157 -0.80664,2.0554531 0.595705,-0.142686 1.024124,-0.405911 1.251953,-0.7616554 0.243994,-0.380982 0.407734,-0.8045464 0.472656,-1.2531761 0.06492,-0.4486307 0.06041,-0.907642 -0.01367,-1.3567607 C 14.671954,4.4083269 14.180045,3.2498228 14.31621,3.5688359 14.422574,3.8181027 14.150945,3.0621205 14.165819,2.7929638 14.180689,2.5238145 14.219299,2.2565651 14.320116,1.9967809 14.586353,1.3107205 15.14978,0.4248614 16.089647,0.1058465 15.901028,0.0795407 15.726438,0.073209 15.562304,0.0835044 Z M 5.2830063,1.0442049 c 0.6602803,-0.00921 1.3132282,0.4470811 1.5800781,1.0947515 l 0.011719,0.030466 0.017578,0.030466 C 7.9617163,4.0687301 8.9847348,5.9781161 10.070116,7.860506 l 0.0039,0.0041 0.002,0.0061 c 1.292623,2.126556 4.347086,2.449559 6.064453,0.708847 1.357029,-1.2543984 1.635621,-3.3909638 0.77539,-5.0106725 v -0.00203 C 16.443046,2.594036 17.182126,1.2076289 18.226366,1.1112306 h 0.01953 l 0.01953,-0.00406 c 1.045973,-0.1814178 2.098187,0.9943102 1.851562,2.0656071 l -0.0039,0.012187 -0.002,0.010155 c -0.03565,0.1924979 -0.101465,0.3812706 -0.19336,0.5524534 -2.233796,4.0121745 -4.441075,8.0396859 -6.6875,12.0361729 -0.618157,0.931555 -2.27284,0.901973 -2.783203,-0.123895 l -0.0059,-0.01219 -0.0059,-0.01219 C 8.1871908,11.641886 5.9913776,7.6110586 3.7576156,3.5993021 3.2417444,2.6494884 3.921068,1.229779 4.9607406,1.0848266 l 0.019531,-0.00203 0.019531,-0.00609 C 5.0932796,1.0555546 5.18868,1.0455246 5.2830058,1.0442096 Z m -2.2167969,0.00203 c 0.032939,-4.309e-4 0.080112,4.012e-4 0.1152343,0 -0.6484676,0.8403 -0.8422948,2.0570836 -0.2949218,3.0648978 l 0.00195,0.00203 v 0.00203 C 5.1202767,8.12334 7.317923,12.157302 9.5720685,16.161525 l -0.01172,-0.02437 c 0.07289,0.146517 0.160119,0.276827 0.253907,0.400123 -0.107389,0.0034 -0.373047,0.01218 -0.373047,0.01218 h -0.01953 l -0.01953,0.002 C 8.787836,16.621297 8.1437328,16.216061 7.8337875,15.60704 l -0.00391,-0.01016 -0.00586,-0.01016 C 6.4486563,13.132535 5.091733,10.712851 3.7341781,8.213914 l -0.00195,-0.002 L 1.230275,3.7049502 v -0.00203 C 0.57257004,2.5439412 1.3090141,1.1215584 2.6013656,1.0584225 h 0.00977 0.00781 c 0.009,-7.684e-4 0.2122172,-0.00911 0.4472657,-0.012186 z"
     inkscape:export-xdpi="4646.7559"
     inkscape:export-ydpi="4646.7559" />
</svg>
